<svg xmlns="http://www.w3.org/2000/svg" width="320" height="320" viewBox="0 0 320 320" role="img" aria-label="Magical Memories by Roswi logo">
  <defs>
    <linearGradient id="bg" x1="0" y1="0" x2="1" y2="1">
      <stop offset="0%" stop-color="#f8f1e8"/>
      <stop offset="100%" stop-color="#eadbc5"/>
    </linearGradient>
    <linearGradient id="accent" x1="0" y1="0" x2="1" y2="1">
      <stop offset="0%" stop-color="#365a49"/>
      <stop offset="100%" stop-color="#b85c38"/>
    </linearGradient>
  </defs>
  <rect width="320" height="320" rx="56" fill="url(#bg)"/>
  <rect x="20" y="20" width="280" height="280" rx="46" fill="none" stroke="#365a49" stroke-opacity="0.24" stroke-width="3"/>

  <circle cx="92" cy="104" r="42" fill="none" stroke="url(#accent)" stroke-width="10"/>
  <circle cx="107" cy="98" r="34" fill="url(#bg)"/>

  <path d="M132 136c10-19 26-25 47-19-12 3-21 11-26 24 8-4 16-2 24 4-13 0-25 7-35 22-3-10-6-20-10-31z" fill="#365a49"/>
  <circle cx="183" cy="105" r="4" fill="#b85c38"/>
  <circle cx="198" cy="113" r="3" fill="#b85c38"/>
  <circle cx="191" cy="99" r="2.7" fill="#b85c38"/>

  <text x="160" y="236" fill="#18312b" font-family="Iowan Old Style, Palatino Linotype, Book Antiqua, serif" font-size="30" font-weight="700" text-anchor="middle" letter-spacing="0.5">
    MAGICALMEMORIES_BYROSWI
  </text>
  <text x="160" y="270" fill="#b85c38" font-family="Avenir Next, Trebuchet MS, sans-serif" font-size="20" font-weight="700" text-anchor="middle" letter-spacing="4.5">
    CUSTOM MAGNETS
  </text>
</svg>
